<mxfile host="Electron" agent="Mozilla/5.0 (Windows NT 10.0; Win64; x64) AppleWebKit/537.36 (KHTML, like Gecko) draw.io/26.2.15 Chrome/134.0.6998.205 Electron/35.2.1 Safari/537.36" version="26.2.15">
  <diagram name="Page-1" id="0fIN-E5wW1eKajBM3Cfg">
    <mxGraphModel dx="1226" dy="793" grid="1" gridSize="10" guides="1" tooltips="1" connect="1" arrows="1" fold="1" page="1" pageScale="1" pageWidth="850" pageHeight="1100" math="0" shadow="0">
      <root>
        <mxCell id="0" />
        <mxCell id="1" parent="0" />
        <mxCell id="jnTPxbTx2N4vKT224erJ-1" value="" style="rounded=0;whiteSpace=wrap;html=1;fillColor=none;dashed=1;" parent="1" vertex="1">
          <mxGeometry x="100" y="210" width="200" height="470" as="geometry" />
        </mxCell>
        <mxCell id="lSu8y9H9xwzoDgoTp-Gz-1" value="Sources" style="rounded=1;whiteSpace=wrap;html=1;fillColor=none;strokeColor=none;fontSize=24;labelBackgroundColor=default;" vertex="1" parent="1">
          <mxGeometry x="140" y="180" width="120" height="60" as="geometry" />
        </mxCell>
        <mxCell id="lSu8y9H9xwzoDgoTp-Gz-14" style="edgeStyle=orthogonalEdgeStyle;rounded=0;orthogonalLoop=1;jettySize=auto;html=1;entryX=0;entryY=0.5;entryDx=0;entryDy=0;" edge="1" parent="1" source="lSu8y9H9xwzoDgoTp-Gz-3" target="lSu8y9H9xwzoDgoTp-Gz-8">
          <mxGeometry relative="1" as="geometry" />
        </mxCell>
        <mxCell id="lSu8y9H9xwzoDgoTp-Gz-15" style="edgeStyle=orthogonalEdgeStyle;rounded=0;orthogonalLoop=1;jettySize=auto;html=1;entryX=0;entryY=0.5;entryDx=0;entryDy=0;" edge="1" parent="1" source="lSu8y9H9xwzoDgoTp-Gz-3" target="lSu8y9H9xwzoDgoTp-Gz-9">
          <mxGeometry relative="1" as="geometry" />
        </mxCell>
        <mxCell id="lSu8y9H9xwzoDgoTp-Gz-16" style="edgeStyle=orthogonalEdgeStyle;rounded=0;orthogonalLoop=1;jettySize=auto;html=1;entryX=0;entryY=0.5;entryDx=0;entryDy=0;" edge="1" parent="1" source="lSu8y9H9xwzoDgoTp-Gz-3" target="lSu8y9H9xwzoDgoTp-Gz-10">
          <mxGeometry relative="1" as="geometry" />
        </mxCell>
        <mxCell id="lSu8y9H9xwzoDgoTp-Gz-3" value="&lt;font style=&quot;font-size: 17px;&quot;&gt;CRM&lt;/font&gt;" style="image;aspect=fixed;html=1;points=[];align=center;fontSize=12;image=img/lib/azure2/general/Folder_Blank.svg;" vertex="1" parent="1">
          <mxGeometry x="165.5" y="349" width="69" height="56.00000000000001" as="geometry" />
        </mxCell>
        <mxCell id="lSu8y9H9xwzoDgoTp-Gz-17" style="edgeStyle=orthogonalEdgeStyle;rounded=0;orthogonalLoop=1;jettySize=auto;html=1;entryX=0;entryY=0.5;entryDx=0;entryDy=0;" edge="1" parent="1" source="lSu8y9H9xwzoDgoTp-Gz-4" target="lSu8y9H9xwzoDgoTp-Gz-12">
          <mxGeometry relative="1" as="geometry" />
        </mxCell>
        <mxCell id="lSu8y9H9xwzoDgoTp-Gz-18" style="edgeStyle=orthogonalEdgeStyle;rounded=0;orthogonalLoop=1;jettySize=auto;html=1;entryX=0;entryY=0.5;entryDx=0;entryDy=0;" edge="1" parent="1" source="lSu8y9H9xwzoDgoTp-Gz-4" target="lSu8y9H9xwzoDgoTp-Gz-11">
          <mxGeometry relative="1" as="geometry" />
        </mxCell>
        <mxCell id="lSu8y9H9xwzoDgoTp-Gz-19" style="edgeStyle=orthogonalEdgeStyle;rounded=0;orthogonalLoop=1;jettySize=auto;html=1;entryX=0;entryY=0.5;entryDx=0;entryDy=0;" edge="1" parent="1" source="lSu8y9H9xwzoDgoTp-Gz-4" target="lSu8y9H9xwzoDgoTp-Gz-13">
          <mxGeometry relative="1" as="geometry" />
        </mxCell>
        <mxCell id="lSu8y9H9xwzoDgoTp-Gz-4" value="&lt;font style=&quot;font-size: 17px;&quot;&gt;ERP&lt;/font&gt;" style="image;aspect=fixed;html=1;points=[];align=center;fontSize=12;image=img/lib/azure2/general/Folder_Blank.svg;" vertex="1" parent="1">
          <mxGeometry x="165.5" y="522" width="69" height="56.00000000000001" as="geometry" />
        </mxCell>
        <mxCell id="lSu8y9H9xwzoDgoTp-Gz-5" value="" style="rounded=1;whiteSpace=wrap;html=1;fillColor=none;strokeColor=#d79b00;fillStyle=auto;" vertex="1" parent="1">
          <mxGeometry x="370" y="260" width="200" height="420" as="geometry" />
        </mxCell>
        <mxCell id="lSu8y9H9xwzoDgoTp-Gz-6" value="Bronze Layer" style="rounded=1;whiteSpace=wrap;html=1;fillColor=#ffe6cc;strokeColor=#d79b00;fillStyle=auto;fontSize=24;" vertex="1" parent="1">
          <mxGeometry x="370" y="210" width="200" height="40" as="geometry" />
        </mxCell>
        <mxCell id="lSu8y9H9xwzoDgoTp-Gz-8" value="crm_cust_info" style="rounded=1;whiteSpace=wrap;html=1;fillColor=none;strokeColor=#d79b00;fillStyle=auto;fontSize=15;" vertex="1" parent="1">
          <mxGeometry x="385" y="311" width="170" height="34" as="geometry" />
        </mxCell>
        <mxCell id="lSu8y9H9xwzoDgoTp-Gz-9" value="crm_prd_info" style="rounded=1;whiteSpace=wrap;html=1;fillColor=none;strokeColor=#d79b00;fillStyle=auto;fontSize=15;" vertex="1" parent="1">
          <mxGeometry x="385" y="360" width="170" height="34" as="geometry" />
        </mxCell>
        <mxCell id="lSu8y9H9xwzoDgoTp-Gz-10" value="crm_sales_details" style="rounded=1;whiteSpace=wrap;html=1;fillColor=none;strokeColor=#d79b00;fillStyle=auto;fontSize=15;" vertex="1" parent="1">
          <mxGeometry x="385" y="410" width="170" height="34" as="geometry" />
        </mxCell>
        <mxCell id="lSu8y9H9xwzoDgoTp-Gz-11" value="erp_cust_az12" style="rounded=1;whiteSpace=wrap;html=1;fillColor=none;strokeColor=#d79b00;fillStyle=auto;fontSize=15;" vertex="1" parent="1">
          <mxGeometry x="385" y="484" width="170" height="34" as="geometry" />
        </mxCell>
        <mxCell id="lSu8y9H9xwzoDgoTp-Gz-12" value="erp_loc_a101" style="rounded=1;whiteSpace=wrap;html=1;fillColor=none;strokeColor=#d79b00;fillStyle=auto;fontSize=15;" vertex="1" parent="1">
          <mxGeometry x="385" y="533" width="170" height="34" as="geometry" />
        </mxCell>
        <mxCell id="lSu8y9H9xwzoDgoTp-Gz-13" value="erp_px_cat_g1v2" style="rounded=1;whiteSpace=wrap;html=1;fillColor=none;strokeColor=#d79b00;fillStyle=auto;fontSize=15;" vertex="1" parent="1">
          <mxGeometry x="385" y="583" width="170" height="34" as="geometry" />
        </mxCell>
        <mxCell id="lSu8y9H9xwzoDgoTp-Gz-20" value="Data flow Diagram" style="rounded=1;whiteSpace=wrap;html=1;fillColor=none;strokeColor=none;fontSize=30;labelBackgroundColor=default;" vertex="1" parent="1">
          <mxGeometry x="340" y="50" width="260" height="60" as="geometry" />
        </mxCell>
      </root>
    </mxGraphModel>
  </diagram>
</mxfile>
